<?xml version="1.0" standalone="no"?>
<svg viewBox="0 0 200 200" xmlns="http://www.w3.org/2000/svg">
  <path fill="#92BCEA" d="M43.6,-73.4C52.9,-61.8,54.6,-43.7,62.2,-28.1C69.8,-12.5,83.4,0.7,82.3,12.2C81.2,23.6,65.4,33.3,53.1,44.2C40.8,55,32,67,21.2,68.5C10.4,70,-2.4,61,-15.6,55.9C-28.7,50.7,-42.1,49.4,-46.2,41.7C-50.2,34,-44.8,19.8,-47.9,6.2C-50.9,-7.4,-62.4,-20.6,-59.2,-26.8C-56,-33,-38.1,-32.3,-25.8,-42.6C-13.5,-52.8,-6.8,-74.1,5.2,-82.2C17.1,-90.2,34.2,-85.1,43.6,-73.4Z" transform="translate(100 100)" />
</svg>
